<mxfile host="Electron" agent="Mozilla/5.0 (X11; Linux x86_64) AppleWebKit/537.36 (KHTML, like Gecko) draw.io/24.7.17 Chrome/128.0.6613.36 Electron/32.0.1 Safari/537.36" version="24.7.17">
  <diagram name="Page-1" id="fS2TBBuwBfw6XBj3Vpff">
    <mxGraphModel dx="1728" dy="1852" grid="1" gridSize="10" guides="1" tooltips="1" connect="1" arrows="1" fold="1" page="1" pageScale="1" pageWidth="1169" pageHeight="827" math="0" shadow="0">
      <root>
        <mxCell id="0" />
        <mxCell id="1" parent="0" />
        <mxCell id="SbbcOOe-M4RnM6OQ8KH8-1" value="" style="ellipse;html=1;shape=startState;fillColor=#000000;strokeColor=#ff0000;" parent="1" vertex="1">
          <mxGeometry x="505" y="-320" width="30" height="30" as="geometry" />
        </mxCell>
        <mxCell id="SbbcOOe-M4RnM6OQ8KH8-2" value="" style="edgeStyle=orthogonalEdgeStyle;html=1;verticalAlign=bottom;endArrow=open;endSize=8;strokeColor=#ff0000;rounded=0;" parent="1" source="SbbcOOe-M4RnM6OQ8KH8-1" edge="1">
          <mxGeometry relative="1" as="geometry">
            <mxPoint x="520" y="-210" as="targetPoint" />
          </mxGeometry>
        </mxCell>
        <mxCell id="SbbcOOe-M4RnM6OQ8KH8-3" value="MC_EXEC" style="ellipse;whiteSpace=wrap;html=1;fillColor=#ffff88;strokeColor=#36393d;" parent="1" vertex="1">
          <mxGeometry x="460" y="-90" width="120" height="60" as="geometry" />
        </mxCell>
        <mxCell id="SbbcOOe-M4RnM6OQ8KH8-4" value="RESET_WAIT" style="ellipse;whiteSpace=wrap;html=1;fillColor=#ffff88;strokeColor=#36393d;" parent="1" vertex="1">
          <mxGeometry x="460" y="-210" width="120" height="60" as="geometry" />
        </mxCell>
        <mxCell id="SbbcOOe-M4RnM6OQ8KH8-5" value="MC_WAIT" style="ellipse;whiteSpace=wrap;html=1;fillColor=#ffff88;strokeColor=#36393d;" parent="1" vertex="1">
          <mxGeometry x="460" y="30" width="120" height="60" as="geometry" />
        </mxCell>
        <mxCell id="SbbcOOe-M4RnM6OQ8KH8-6" value="" style="endArrow=classic;html=1;rounded=0;exitX=0.5;exitY=1;exitDx=0;exitDy=0;entryX=0.5;entryY=0;entryDx=0;entryDy=0;" parent="1" source="SbbcOOe-M4RnM6OQ8KH8-4" target="SbbcOOe-M4RnM6OQ8KH8-3" edge="1">
          <mxGeometry width="50" height="50" relative="1" as="geometry">
            <mxPoint x="620" y="-40" as="sourcePoint" />
            <mxPoint x="670" y="-90" as="targetPoint" />
          </mxGeometry>
        </mxCell>
        <mxCell id="SbbcOOe-M4RnM6OQ8KH8-7" value="" style="endArrow=classic;html=1;rounded=0;exitX=0.5;exitY=1;exitDx=0;exitDy=0;entryX=0.5;entryY=0;entryDx=0;entryDy=0;" parent="1" edge="1">
          <mxGeometry width="50" height="50" relative="1" as="geometry">
            <mxPoint x="519.6600000000001" y="-30" as="sourcePoint" />
            <mxPoint x="519.6600000000001" y="30" as="targetPoint" />
          </mxGeometry>
        </mxCell>
        <mxCell id="SbbcOOe-M4RnM6OQ8KH8-8" value="" style="endArrow=classic;html=1;rounded=0;entryX=0;entryY=0.5;entryDx=0;entryDy=0;exitX=0.5;exitY=1;exitDx=0;exitDy=0;" parent="1" source="sAuPj8A2imR_d-cUK87z-1" target="SbbcOOe-M4RnM6OQ8KH8-4" edge="1">
          <mxGeometry width="50" height="50" relative="1" as="geometry">
            <mxPoint x="680" y="720" as="sourcePoint" />
            <mxPoint x="380" y="-180" as="targetPoint" />
            <Array as="points">
              <mxPoint x="520" y="480" />
              <mxPoint x="200" y="480" />
              <mxPoint x="200" y="-180" />
            </Array>
          </mxGeometry>
        </mxCell>
        <mxCell id="SbbcOOe-M4RnM6OQ8KH8-9" value="mc_executor_ready &amp;amp;&amp;amp; spi_driver_ready&amp;nbsp; / &lt;br&gt;mc_procedure_offset &amp;lt;= 0" style="text;html=1;align=center;verticalAlign=middle;whiteSpace=wrap;rounded=0;" parent="1" vertex="1">
          <mxGeometry x="520" y="-150" width="250" height="60" as="geometry" />
        </mxCell>
        <mxCell id="SbbcOOe-M4RnM6OQ8KH8-10" value="!mc_executor_ready" style="text;html=1;align=center;verticalAlign=middle;whiteSpace=wrap;rounded=0;" parent="1" vertex="1">
          <mxGeometry x="520" y="-20" width="130" height="30" as="geometry" />
        </mxCell>
        <mxCell id="SbbcOOe-M4RnM6OQ8KH8-11" value="spi_driver_ready" style="text;html=1;align=center;verticalAlign=middle;whiteSpace=wrap;rounded=0;" parent="1" vertex="1">
          <mxGeometry x="100" y="90" width="100" height="50" as="geometry" />
        </mxCell>
        <mxCell id="SbbcOOe-M4RnM6OQ8KH8-12" value="State Machine: SSD1306 Driver" style="shape=umlFrame;whiteSpace=wrap;html=1;pointerEvents=0;width=180;height=30;fillColor=none;dashed=1;dashPattern=8 8;" parent="1" vertex="1">
          <mxGeometry x="90" y="-250" width="680" height="770" as="geometry" />
        </mxCell>
        <mxCell id="SbbcOOe-M4RnM6OQ8KH8-13" value="External reset" style="text;html=1;align=center;verticalAlign=middle;whiteSpace=wrap;rounded=0;" parent="1" vertex="1">
          <mxGeometry x="450" y="-320" width="60" height="30" as="geometry" />
        </mxCell>
        <mxCell id="Ow-7XZzLv-gYGJ6s3WRC-1" value="SEND_DATA" style="ellipse;whiteSpace=wrap;html=1;fillColor=#ffff88;strokeColor=#36393d;" parent="1" vertex="1">
          <mxGeometry x="460" y="270" width="120" height="60" as="geometry" />
        </mxCell>
        <mxCell id="Ow-7XZzLv-gYGJ6s3WRC-2" value="IDLE" style="ellipse;whiteSpace=wrap;html=1;fillColor=#ffff88;strokeColor=#36393d;" parent="1" vertex="1">
          <mxGeometry x="460" y="150" width="120" height="60" as="geometry" />
        </mxCell>
        <mxCell id="Ow-7XZzLv-gYGJ6s3WRC-3" value="" style="endArrow=classic;html=1;rounded=0;exitX=0.5;exitY=1;exitDx=0;exitDy=0;entryX=0.5;entryY=0;entryDx=0;entryDy=0;" parent="1" edge="1">
          <mxGeometry width="50" height="50" relative="1" as="geometry">
            <mxPoint x="519.33" y="90" as="sourcePoint" />
            <mxPoint x="519.33" y="150" as="targetPoint" />
          </mxGeometry>
        </mxCell>
        <mxCell id="Ow-7XZzLv-gYGJ6s3WRC-4" value="" style="endArrow=classic;html=1;rounded=0;exitX=0.5;exitY=1;exitDx=0;exitDy=0;entryX=0.5;entryY=0;entryDx=0;entryDy=0;" parent="1" edge="1">
          <mxGeometry width="50" height="50" relative="1" as="geometry">
            <mxPoint x="519.33" y="210" as="sourcePoint" />
            <mxPoint x="519.33" y="270" as="targetPoint" />
          </mxGeometry>
        </mxCell>
        <mxCell id="Ow-7XZzLv-gYGJ6s3WRC-5" value="" style="endArrow=classic;html=1;rounded=0;exitX=0;exitY=0.5;exitDx=0;exitDy=0;entryX=0;entryY=0.5;entryDx=0;entryDy=0;" parent="1" source="Ow-7XZzLv-gYGJ6s3WRC-2" target="SbbcOOe-M4RnM6OQ8KH8-3" edge="1">
          <mxGeometry width="50" height="50" relative="1" as="geometry">
            <mxPoint x="529.33" y="100" as="sourcePoint" />
            <mxPoint x="529.33" y="160" as="targetPoint" />
            <Array as="points">
              <mxPoint x="420" y="180" />
              <mxPoint x="420" y="-60" />
            </Array>
          </mxGeometry>
        </mxCell>
        <mxCell id="Ow-7XZzLv-gYGJ6s3WRC-7" value="write_stb_in" style="text;html=1;align=center;verticalAlign=middle;whiteSpace=wrap;rounded=0;" parent="1" vertex="1">
          <mxGeometry x="520" y="220" width="90" height="30" as="geometry" />
        </mxCell>
        <mxCell id="Ow-7XZzLv-gYGJ6s3WRC-8" value="&lt;div&gt;sync_stb_in&lt;span style=&quot;background-color: initial;&quot;&gt;&amp;nbsp;/&lt;/span&gt;&lt;/div&gt;&lt;div&gt;mc_procedure_offset &amp;lt;= SYNC_OFFSET&lt;/div&gt;" style="text;html=1;align=center;verticalAlign=middle;whiteSpace=wrap;rounded=0;" parent="1" vertex="1">
          <mxGeometry x="220" y="150" width="240" height="75" as="geometry" />
        </mxCell>
        <mxCell id="sAuPj8A2imR_d-cUK87z-1" value="DATA_WAIT" style="ellipse;whiteSpace=wrap;html=1;fillColor=#ffff88;strokeColor=#36393d;" vertex="1" parent="1">
          <mxGeometry x="460" y="390" width="120" height="60" as="geometry" />
        </mxCell>
        <mxCell id="sAuPj8A2imR_d-cUK87z-3" value="" style="endArrow=classic;html=1;rounded=0;exitX=0.5;exitY=1;exitDx=0;exitDy=0;entryX=0.5;entryY=0;entryDx=0;entryDy=0;" edge="1" parent="1">
          <mxGeometry width="50" height="50" relative="1" as="geometry">
            <mxPoint x="519" y="330" as="sourcePoint" />
            <mxPoint x="519" y="390" as="targetPoint" />
          </mxGeometry>
        </mxCell>
        <mxCell id="sAuPj8A2imR_d-cUK87z-4" value="mc_executor_ready" style="text;html=1;align=center;verticalAlign=middle;whiteSpace=wrap;rounded=0;" vertex="1" parent="1">
          <mxGeometry x="520" y="100" width="130" height="30" as="geometry" />
        </mxCell>
        <mxCell id="sAuPj8A2imR_d-cUK87z-5" value="!spi_driver_ready" style="text;html=1;align=center;verticalAlign=middle;whiteSpace=wrap;rounded=0;" vertex="1" parent="1">
          <mxGeometry x="520" y="340" width="120" height="30" as="geometry" />
        </mxCell>
      </root>
    </mxGraphModel>
  </diagram>
</mxfile>
